<?xml version="1.0" encoding="UTF-8" standalone="no"?>
<!DOCTYPE svg PUBLIC "-//W3C//DTD SVG 1.1//EN" "http://www.w3.org/Graphics/SVG/1.1/DTD/svg11.dtd">
<svg width="100%" height="100%" viewBox="0 0 296 325" version="1.1" xmlns="http://www.w3.org/2000/svg" xmlns:xlink="http://www.w3.org/1999/xlink" xml:space="preserve" xmlns:serif="http://www.serif.com/" style="fill-rule:evenodd;clip-rule:evenodd;stroke-linejoin:round;stroke-miterlimit:2;">
    <g transform="matrix(1,0,0,1,-1218,-2501)">
        <g transform="matrix(1,0,0,1,0,2255.54)">
            <g transform="matrix(0.232727,0,0,0.232727,-84.8149,-76.3934)">
                <g transform="matrix(2.60005,0,0,3.47944,3586.95,-5795.58)">
                    <path d="M817.532,2329.44L966.911,2143.37C966.911,2143.37 966.911,2324.3 966.911,2324.3L1013.18,2324.3L1013.18,2080.95L970.207,2072.05L777.852,2311.65L817.532,2329.44Z" style="fill:rgb(242,48,5);"/>
                </g>
                <g transform="matrix(-2.60005,0,0,3.47944,8881.71,-5374.46)">
                    <path d="M782.539,2307.02L899.621,2231.2C899.621,2231.2 784.102,2168.54 784.102,2168.54L787.147,2139.16L979.502,2065.56L1013.18,2080.95L1013.16,2325.59L966.883,2325.58L966.908,2109.23C966.908,2109.23 841.786,2157.1 841.786,2157.1C841.786,2157.1 950.39,2216.01 950.39,2216.01L951.952,2243.06L812.845,2333.15L782.539,2307.02Z" style="fill:rgb(242,48,5);"/>
                </g>
            </g>
        </g>
    </g>
</svg>
