<?xml version="1.0" encoding="UTF-8" standalone="no"?>
<!DOCTYPE svg PUBLIC "-//W3C//DTD SVG 1.1//EN" "http://www.w3.org/Graphics/SVG/1.1/DTD/svg11.dtd">
<svg width="100%" height="100%" viewBox="0 0 380 380" version="1.1" xmlns="http://www.w3.org/2000/svg" xmlns:xlink="http://www.w3.org/1999/xlink" xml:space="preserve" xmlns:serif="http://www.serif.com/" style="fill-rule:evenodd;clip-rule:evenodd;stroke-linejoin:round;stroke-miterlimit:2;">
    <g transform="matrix(1,0,0,1,-39,-43)">
        <g transform="matrix(1.77618,0,0,1.77618,-137.295,-95.9971)">
            <path d="M195.897,217.237L165.914,188.989C161.794,185.107 155.297,185.301 151.416,189.421C147.534,193.541 147.728,200.037 151.848,203.919L198.946,248.292C200.309,249.639 201.964,250.529 203.713,250.954C204.398,251.122 205.111,251.22 205.842,251.242L205.888,251.244L205.954,251.245L206.02,251.246L206.089,251.247L206.153,251.247L206.219,251.247L206.285,251.246L206.351,251.245L206.417,251.244L206.463,251.242C207.195,251.221 207.907,251.122 208.593,250.954C210.341,250.529 211.996,249.639 213.36,248.292L260.458,203.919C264.578,200.037 264.771,193.541 260.89,189.421C257.008,185.301 250.512,185.107 246.392,188.989L216.409,217.237L216.409,129.821C216.409,124.161 211.813,119.565 206.153,119.565C200.492,119.565 195.897,124.161 195.897,129.821L195.897,217.237Z" style="fill:rgb(242,48,5);"/>
            <g transform="matrix(1,0,0,1,1.74946,-2.5599)">
                <path d="M204.403,81.256C145.509,81.256 97.694,129.071 97.694,187.966C97.694,246.861 145.509,294.675 204.403,294.675C263.298,294.675 311.113,246.861 311.113,187.966C311.113,129.071 263.298,81.256 204.403,81.256ZM204.403,101.769C251.977,101.769 290.601,140.392 290.601,187.966C290.601,235.54 251.977,274.163 204.403,274.163C156.83,274.163 118.206,235.54 118.206,187.966C118.206,140.392 156.83,101.769 204.403,101.769Z" style="fill:rgb(242,48,5);"/>
            </g>
        </g>
    </g>
</svg>
