<?xml version="1.0" encoding="UTF-8" standalone="no"?>
<!DOCTYPE svg PUBLIC "-//W3C//DTD SVG 1.1//EN" "http://www.w3.org/Graphics/SVG/1.1/DTD/svg11.dtd">
<svg width="100%" height="100%" viewBox="0 0 337 380" version="1.1" xmlns="http://www.w3.org/2000/svg" xmlns:xlink="http://www.w3.org/1999/xlink" xml:space="preserve" xmlns:serif="http://www.serif.com/" style="fill-rule:evenodd;clip-rule:evenodd;stroke-linejoin:round;stroke-miterlimit:2;">
    <g transform="matrix(1,0,0,1,-88,-478)">
        <g transform="matrix(1.27667,0,0,1.1674,-2909.78,350.272)">
            <path d="M2600.99,110.114L2600.65,110.141C2599.31,110.268 2597.98,110.661 2596.73,111.337L2596.59,111.416C2596.39,111.532 2596.18,111.655 2595.99,111.785L2353.36,268.353C2349.95,270.554 2348.15,274.558 2348.78,278.567C2349.42,282.576 2352.35,285.836 2356.28,286.881L2439.3,309.009C2439.3,309.009 2444.43,374.861 2444.43,374.861C2444.71,378.451 2446.85,381.631 2450.07,383.24C2453.29,384.849 2457.12,384.652 2460.16,382.72L2490.53,363.406C2495.3,360.368 2496.72,354.024 2493.68,349.248C2490.64,344.471 2484.3,343.059 2479.52,346.096L2463.55,356.251C2463.55,356.251 2459.19,300.174 2459.19,300.174C2458.85,295.834 2455.81,292.181 2451.6,291.06L2383.94,273.027L2564.46,156.542L2465.36,301.477C2462.7,305.374 2463.04,310.587 2466.19,314.105L2571.14,431.39C2573.89,434.454 2578.19,435.584 2582.09,434.261C2585.98,432.939 2588.71,429.419 2589.01,425.318L2611.86,121.119C2611.89,120.665 2611.89,120.214 2611.87,119.769L2611.84,119.387C2611.7,117.91 2611.24,116.444 2610.43,115.094L2610.2,114.719L2609.98,114.393C2609.07,113.117 2607.91,112.108 2606.62,111.39L2606.11,111.128C2605.76,110.957 2605.4,110.805 2605.02,110.673C2603.7,110.208 2602.33,110.03 2600.99,110.114Z" style="fill:rgb(242,48,5);"/>
        </g>
    </g>
</svg>
