<?xml version="1.0" encoding="UTF-8" standalone="no"?>
<!DOCTYPE svg PUBLIC "-//W3C//DTD SVG 1.1//EN" "http://www.w3.org/Graphics/SVG/1.1/DTD/svg11.dtd">
<svg width="100%" height="100%" viewBox="0 0 1920 1195" version="1.1" xmlns="http://www.w3.org/2000/svg" xmlns:xlink="http://www.w3.org/1999/xlink" xml:space="preserve" xmlns:serif="http://www.serif.com/" style="fill-rule:evenodd;clip-rule:evenodd;stroke-linejoin:round;stroke-miterlimit:2;">
    <g transform="matrix(1,0,0,1.10756,0,0)">
        <g transform="matrix(1,0,0,0.99167,0,7.87125)">
            <rect x="0" y="-7.937" width="1920" height="1087.94" style="fill:none;"/>
            <clipPath id="_clip1">
                <rect x="0" y="-7.937" width="1920" height="1087.94"/>
            </clipPath>
            <g clip-path="url(#_clip1)">
                <g transform="matrix(1,0,0,0.910471,1.39225,45.2014)">
                    <g transform="matrix(1.46228,-0.228876,0.228876,1.46228,-432.593,-70.671)">
                        <path d="M286.088,134.305C310.713,134.305 329.888,142.209 343.615,158.015C357.342,173.822 364.205,196.117 364.205,224.902C364.205,243.704 361.086,259.926 354.846,273.57C348.607,287.213 339.622,297.654 327.892,304.892C316.162,312.13 302.227,315.749 286.088,315.749C269.948,315.749 256.055,312.171 244.408,305.017C232.761,297.862 223.818,287.505 217.578,273.944C211.339,260.384 208.219,244.036 208.219,224.902C208.219,206.267 211.339,190.128 217.578,176.484C223.818,162.84 232.761,152.4 244.408,145.162C256.055,137.924 269.948,134.305 286.088,134.305ZM286.088,164.255C274.274,164.255 265.497,169.038 259.757,178.605C254.017,188.173 251.147,203.605 251.147,224.902C251.147,246.199 254.058,261.673 259.882,271.324C265.705,280.974 274.441,285.799 286.088,285.799C298.067,285.799 306.927,281.016 312.668,271.448C318.408,261.881 321.278,246.366 321.278,224.902C321.278,203.438 318.366,187.965 312.543,178.481C306.719,168.997 297.901,164.255 286.088,164.255Z" style="fill-rule:nonzero;"/>
                        <path d="M498.229,138.548L494.236,169.995L451.558,169.995L451.558,311.506L410.627,311.506L410.627,169.995L365.953,169.995L365.953,138.548L498.229,138.548Z" style="fill-rule:nonzero;"/>
                        <path d="M575.848,134.305C600.473,134.305 619.649,142.209 633.375,158.015C647.102,173.822 653.966,196.117 653.966,224.902C653.966,243.704 650.846,259.926 644.606,273.57C638.367,287.213 629.382,297.654 617.652,304.892C605.922,312.13 591.987,315.749 575.848,315.749C559.708,315.749 545.815,312.171 534.168,305.017C522.521,297.862 513.578,287.505 507.338,273.944C501.099,260.384 497.979,244.036 497.979,224.902C497.979,206.267 501.099,190.128 507.338,176.484C513.578,162.84 522.521,152.4 534.168,145.162C545.815,137.924 559.708,134.305 575.848,134.305ZM575.848,164.255C564.034,164.255 555.257,169.038 549.517,178.605C543.777,188.173 540.907,203.605 540.907,224.902C540.907,246.199 543.818,261.673 549.642,271.324C555.465,280.974 564.201,285.799 575.848,285.799C587.827,285.799 596.687,281.016 602.428,271.448C608.168,261.881 611.038,246.366 611.038,224.902C611.038,203.438 608.126,187.965 602.303,178.481C596.479,168.997 587.661,164.255 575.848,164.255Z" style="fill-rule:nonzero;"/>
                    </g>
                    <g transform="matrix(2.03018,-0.317765,0.828008,5.29011,-525.296,-293.448)">
                        <path d="M99.403,311.506L99.403,138.548L202.479,138.548L198.236,167.749L140.334,167.749L140.334,213.671L190.749,213.671L190.749,242.872L140.334,242.872L140.334,311.506L99.403,311.506Z" style="fill-rule:nonzero;"/>
                        <path d="M286.088,134.305C310.713,134.305 329.888,142.209 343.615,158.015C357.342,173.822 364.205,196.117 364.205,224.902C364.205,243.704 361.086,259.926 354.846,273.57C348.607,287.213 339.622,297.654 327.892,304.892C316.162,312.13 302.227,315.749 286.088,315.749C269.948,315.749 256.055,312.171 244.408,305.017C232.761,297.862 223.818,287.505 217.578,273.944C211.339,260.384 208.219,244.036 208.219,224.902C208.219,206.267 211.339,190.128 217.578,176.484C223.818,162.84 232.761,152.4 244.408,145.162C256.055,137.924 269.948,134.305 286.088,134.305ZM286.088,164.255C274.274,164.255 265.497,169.038 259.757,178.605C254.017,188.173 251.147,203.605 251.147,224.902C251.147,246.199 254.058,261.673 259.882,271.324C265.705,280.974 274.441,285.799 286.088,285.799C298.067,285.799 306.927,281.016 312.668,271.448C318.408,261.881 321.278,246.366 321.278,224.902C321.278,203.438 318.366,187.965 312.543,178.481C306.719,168.997 297.901,164.255 286.088,164.255Z" style="fill-rule:nonzero;"/>
                        <path d="M498.229,138.548L494.236,169.995L451.558,169.995L451.558,311.506L410.627,311.506L410.627,169.995L365.953,169.995L365.953,138.548L498.229,138.548Z" style="fill-rule:nonzero;"/>
                        <path d="M575.848,134.305C600.473,134.305 619.649,142.209 633.375,158.015C647.102,173.822 653.966,196.117 653.966,224.902C653.966,243.704 650.846,259.926 644.606,273.57C638.367,287.213 629.382,297.654 617.652,304.892C605.922,312.13 591.987,315.749 575.848,315.749C559.708,315.749 545.815,312.171 534.168,305.017C522.521,297.862 513.578,287.505 507.338,273.944C501.099,260.384 497.979,244.036 497.979,224.902C497.979,206.267 501.099,190.128 507.338,176.484C513.578,162.84 522.521,152.4 534.168,145.162C545.815,137.924 559.708,134.305 575.848,134.305ZM575.848,164.255C564.034,164.255 555.257,169.038 549.517,178.605C543.777,188.173 540.907,203.605 540.907,224.902C540.907,246.199 543.818,261.673 549.642,271.324C555.465,280.974 564.201,285.799 575.848,285.799C587.827,285.799 596.687,281.016 602.428,271.448C608.168,261.881 611.038,246.366 611.038,224.902C611.038,203.438 608.126,187.965 602.303,178.481C596.479,168.997 587.661,164.255 575.848,164.255Z" style="fill-rule:nonzero;"/>
                    </g>
                    <g transform="matrix(-1.46228,0.228876,0.228876,1.46228,2118.85,-470.023)">
                        <path d="M99.403,311.506L99.403,138.548L202.479,138.548L198.236,167.749L140.334,167.749L140.334,213.671L190.749,213.671L190.749,242.872L140.334,242.872L140.334,311.506L99.403,311.506Z" style="fill-rule:nonzero;"/>
                        <path d="M286.088,134.305C310.713,134.305 329.888,142.209 343.615,158.015C357.342,173.822 364.205,196.117 364.205,224.902C364.205,243.704 361.086,259.926 354.846,273.57C348.607,287.213 339.622,297.654 327.892,304.892C316.162,312.13 302.227,315.749 286.088,315.749C269.948,315.749 256.055,312.171 244.408,305.017C232.761,297.862 223.818,287.505 217.578,273.944C211.339,260.384 208.219,244.036 208.219,224.902C208.219,206.267 211.339,190.128 217.578,176.484C223.818,162.84 232.761,152.4 244.408,145.162C256.055,137.924 269.948,134.305 286.088,134.305ZM286.088,164.255C274.274,164.255 265.497,169.038 259.757,178.605C254.017,188.173 251.147,203.605 251.147,224.902C251.147,246.199 254.058,261.673 259.882,271.324C265.705,280.974 274.441,285.799 286.088,285.799C298.067,285.799 306.927,281.016 312.668,271.448C318.408,261.881 321.278,246.366 321.278,224.902C321.278,203.438 318.366,187.965 312.543,178.481C306.719,168.997 297.901,164.255 286.088,164.255Z" style="fill-rule:nonzero;"/>
                        <path d="M498.229,138.548L494.236,169.995L451.558,169.995L451.558,311.506L410.627,311.506L410.627,169.995L365.953,169.995L365.953,138.548L498.229,138.548Z" style="fill-rule:nonzero;"/>
                        <path d="M575.848,134.305C600.473,134.305 619.649,142.209 633.375,158.015C647.102,173.822 653.966,196.117 653.966,224.902C653.966,243.704 650.846,259.926 644.606,273.57C638.367,287.213 629.382,297.654 617.652,304.892C605.922,312.13 591.987,315.749 575.848,315.749C559.708,315.749 545.815,312.171 534.168,305.017C522.521,297.862 513.578,287.505 507.338,273.944C501.099,260.384 497.979,244.036 497.979,224.902C497.979,206.267 501.099,190.128 507.338,176.484C513.578,162.84 522.521,152.4 534.168,145.162C545.815,137.924 559.708,134.305 575.848,134.305ZM575.848,164.255C564.034,164.255 555.257,169.038 549.517,178.605C543.777,188.173 540.907,203.605 540.907,224.902C540.907,246.199 543.818,261.673 549.642,271.324C555.465,280.974 564.201,285.799 575.848,285.799C587.827,285.799 596.687,281.016 602.428,271.448C608.168,261.881 611.038,246.366 611.038,224.902C611.038,203.438 608.126,187.965 602.303,178.481C596.479,168.997 587.661,164.255 575.848,164.255Z" style="fill-rule:nonzero;"/>
                    </g>
                    <g transform="matrix(0.957547,-0.149875,0.228876,1.46228,471.003,-212.102)">
                        <path d="M99.403,311.506L99.403,138.548L202.479,138.548L198.236,167.749L140.334,167.749L140.334,213.671L190.749,213.671L190.749,242.872L140.334,242.872L140.334,311.506L99.403,311.506Z" style="fill-rule:nonzero;"/>
                        <path d="M291.079,134.804C306.886,134.804 320.529,138.34 332.01,145.412C343.49,152.483 352.309,162.757 358.465,176.234C364.621,189.712 367.7,206.017 367.7,225.152C367.7,243.953 364.621,260.134 358.465,273.695C352.309,287.255 343.49,297.613 332.01,304.767C320.529,311.922 306.886,315.499 291.079,315.499C275.272,315.499 261.587,311.963 250.024,304.892C238.46,297.821 229.6,287.505 223.443,273.944C217.287,260.384 214.209,244.12 214.209,225.152C214.209,206.517 217.329,190.419 223.568,176.858C229.808,163.298 238.709,152.899 250.273,145.661C261.837,138.423 275.439,134.804 291.079,134.804ZM291.079,162.258C278.434,162.258 268.908,167.25 262.502,177.233C256.097,187.216 252.894,203.189 252.894,225.152C252.894,247.115 256.138,263.088 262.627,273.071C269.116,283.054 278.6,288.045 291.079,288.045C303.724,288.045 313.208,283.095 319.531,273.196C325.854,263.296 329.015,247.281 329.015,225.152C329.015,203.022 325.854,187.008 319.531,177.108C313.208,167.208 303.724,162.258 291.079,162.258Z" style="fill-rule:nonzero;"/>
                        <path d="M508.212,139.047L504.718,165.253L459.794,165.253L459.794,311.506L426.6,311.506L426.6,165.253L380.178,165.253L380.178,139.047L508.212,139.047Z" style="fill-rule:nonzero;"/>
                        <path d="M595.814,136.552C610.289,136.552 622.976,140.004 633.875,146.909C644.773,153.814 653.258,163.922 659.331,177.233C665.405,190.544 668.441,206.683 668.441,225.651C668.441,244.286 665.405,260.259 659.331,273.57C653.258,286.881 644.773,297.03 633.875,304.018C622.976,311.007 610.289,314.501 595.814,314.501C581.338,314.501 568.651,311.09 557.753,304.268C546.855,297.446 538.369,287.38 532.296,274.069C526.223,260.758 523.187,244.702 523.187,225.9C523.187,207.432 526.223,191.459 532.296,177.981C538.369,164.504 546.897,154.23 557.878,147.159C568.859,140.087 581.505,136.552 595.814,136.552ZM595.814,156.019C580.839,156.019 569.192,161.676 560.873,172.99C552.554,184.304 548.394,201.941 548.394,225.9C548.394,249.694 552.595,267.164 560.998,278.312C569.4,289.46 581.006,295.034 595.814,295.034C627.427,295.034 643.234,271.906 643.234,225.651C643.234,179.229 627.427,156.019 595.814,156.019Z" style="fill-rule:nonzero;"/>
                    </g>
                    <g transform="matrix(1.94325,-0.304157,0.345588,2.20795,804.859,496.516)">
                        <path d="M99.403,311.506L99.403,138.548L202.479,138.548L198.236,167.749L140.334,167.749L140.334,213.671L190.749,213.671L190.749,242.872L140.334,242.872L140.334,311.506L99.403,311.506Z" style="fill-rule:nonzero;"/>
                        <path d="M291.079,135.304C306.553,135.304 319.947,138.798 331.261,145.786C342.575,152.774 351.269,163.007 357.342,176.484C363.415,189.961 366.452,206.184 366.452,225.152C366.452,243.953 363.374,260.093 357.217,273.57C351.061,287.047 342.326,297.363 331.012,304.518C319.697,311.672 306.387,315.249 291.079,315.249C275.605,315.249 262.211,311.755 250.897,304.767C239.583,297.779 230.848,287.546 224.691,274.069C218.535,260.592 215.457,244.369 215.457,225.401C215.457,206.766 218.535,190.668 224.691,177.108C230.848,163.548 239.624,153.19 251.022,146.035C262.419,138.881 275.772,135.304 291.079,135.304ZM291.079,160.511C277.768,160.511 267.619,165.711 260.631,176.11C253.642,186.509 250.148,202.939 250.148,225.401C250.148,268.495 263.792,290.042 291.079,290.042C304.39,290.042 314.498,284.884 321.403,274.568C328.308,264.252 331.76,247.78 331.76,225.152C331.76,202.69 328.308,186.301 321.403,175.985C314.498,165.669 304.39,160.511 291.079,160.511Z" style="fill-rule:nonzero;"/>
                        <path d="M503.72,139.546L501.224,159.762L453.554,159.762L453.554,311.506L429.844,311.506L429.844,159.762L380.927,159.762L380.927,139.546L503.72,139.546Z" style="fill-rule:nonzero;"/>
                        <path d="M592.32,138.299C606.13,138.299 618.193,141.668 628.509,148.406C638.824,155.145 646.853,165.128 652.593,178.356C658.333,191.583 661.203,207.598 661.203,226.4C661.203,244.868 658.375,260.675 652.718,273.819C647.061,286.964 639.074,296.989 628.758,303.894C618.442,310.799 606.296,314.251 592.32,314.251C578.676,314.251 566.696,310.84 556.381,304.018C546.065,297.197 538.037,287.213 532.296,274.069C526.556,260.925 523.686,245.118 523.686,226.649C523.686,208.18 526.556,192.291 532.296,178.98C538.037,165.669 546.106,155.561 556.505,148.656C566.904,141.751 578.843,138.299 592.32,138.299ZM592.32,148.531C575.016,148.531 561.331,155.145 551.264,168.373C541.198,181.6 536.165,201.026 536.165,226.649C536.165,251.773 541.239,270.908 551.389,284.052C561.538,297.197 575.182,303.769 592.32,303.769C610.123,303.769 623.975,297.238 633.875,284.177C643.774,271.116 648.724,251.857 648.724,226.4C648.724,200.776 643.733,181.392 633.75,168.248C623.767,155.104 609.957,148.531 592.32,148.531Z" style="fill-rule:nonzero;"/>
                    </g>
                    <g transform="matrix(2.14529,-0.335781,0.470543,3.00628,648.999,-164.541)">
                        <path d="M113.879,311.506L113.879,141.543L192.745,141.543L191.997,146.784L119.619,146.784L119.619,222.656L182.013,222.656L182.013,227.897L119.619,227.897L119.619,311.506L113.879,311.506Z" style="fill-rule:nonzero;"/>
                        <path d="M282.843,139.047C296.32,139.047 308.05,142.417 318.034,149.155C328.017,155.894 335.754,165.794 341.244,178.855C346.735,191.916 349.48,207.848 349.48,226.649C349.48,254.103 343.615,275.525 331.885,290.916C320.155,306.306 303.808,314.002 282.843,314.002C269.532,314.002 257.885,310.591 247.902,303.769C237.919,296.947 230.182,287.005 224.691,273.944C219.201,260.883 216.455,245.201 216.455,226.899C216.455,208.596 219.242,192.831 224.816,179.604C230.39,166.376 238.169,156.31 248.152,149.405C258.135,142.5 269.699,139.047 282.843,139.047ZM282.843,144.288C270.697,144.288 260.09,147.491 251.022,153.897C241.954,160.303 234.882,169.704 229.808,182.1C224.733,194.495 222.196,209.428 222.196,226.899C222.196,244.203 224.691,258.97 229.683,271.199C234.674,283.428 241.746,292.704 250.897,299.027C260.048,305.349 270.697,308.511 282.843,308.511C302.144,308.511 317.118,301.481 327.767,287.421C338.416,273.362 343.74,253.104 343.74,226.649C343.74,200.028 338.291,179.645 327.393,165.503C316.494,151.36 301.645,144.288 282.843,144.288Z" style="fill-rule:nonzero;"/>
                        <path d="M475.767,141.543L474.769,147.034L422.357,147.034L422.357,311.506L416.617,311.506L416.617,147.034L364.205,147.034L364.205,141.543L475.767,141.543Z" style="fill-rule:nonzero;"/>
                        <path d="M556.131,139.047C569.608,139.047 581.338,142.417 591.321,149.155C601.305,155.894 609.042,165.794 614.532,178.855C620.023,191.916 622.768,207.848 622.768,226.649C622.768,254.103 616.903,275.525 605.173,290.916C593.443,306.306 577.096,314.002 556.131,314.002C542.82,314.002 531.173,310.591 521.19,303.769C511.207,296.947 503.47,287.005 497.979,273.944C492.489,260.883 489.743,245.201 489.743,226.899C489.743,208.596 492.53,192.831 498.104,179.604C503.678,166.376 511.456,156.31 521.44,149.405C531.423,142.5 542.987,139.047 556.131,139.047ZM556.131,144.288C543.985,144.288 533.378,147.491 524.31,153.897C515.242,160.303 508.17,169.704 503.096,182.1C498.021,194.495 495.483,209.428 495.483,226.899C495.483,244.203 497.979,258.97 502.971,271.199C507.962,283.428 515.034,292.704 524.185,299.027C533.336,305.349 543.985,308.511 556.131,308.511C575.432,308.511 590.406,301.481 601.055,287.421C611.704,273.362 617.028,253.104 617.028,226.649C617.028,200.028 611.579,179.645 600.681,165.503C589.782,151.36 574.933,144.288 556.131,144.288Z" style="fill-rule:nonzero;"/>
                    </g>
                </g>
            </g>
        </g>
    </g>
</svg>
