<?xml version="1.0" encoding="UTF-8" standalone="no"?>
<!DOCTYPE svg PUBLIC "-//W3C//DTD SVG 1.1//EN" "http://www.w3.org/Graphics/SVG/1.1/DTD/svg11.dtd">
<svg width="100%" height="100%" viewBox="0 0 1920 1090" version="1.1" xmlns="http://www.w3.org/2000/svg" xmlns:xlink="http://www.w3.org/1999/xlink" xml:space="preserve" xmlns:serif="http://www.serif.com/" style="fill-rule:evenodd;clip-rule:evenodd;stroke-linejoin:round;stroke-miterlimit:2;">
    <g transform="matrix(1,0,0,1.10756,0,0)">
        <g transform="matrix(8.72106e-17,-1.28594,2.011,1.1118e-16,-251.884,1485.1)">
            <path d="M1154.87,1080L390.143,1080L581.325,125.253L963.69,125.253L1154.87,1080Z" style="fill:rgb(191,35,21);"/>
            <clipPath id="_clip1">
                <path d="M1154.87,1080L390.143,1080L581.325,125.253L963.69,125.253L1154.87,1080Z"/>
            </clipPath>
            <g clip-path="url(#_clip1)">
                <g transform="matrix(4.29924e-17,0.497264,-0.70212,3.04486e-17,1154.87,125.253)">
                    <path d="M1383.88,863.522C1390.69,872.481 1394.19,883.295 1397.92,893.547C1392.41,921.375 1386.87,949.199 1381.31,977.019C1376.69,955.104 1372.22,932.216 1363.64,911.995C1359.6,902.469 1354.33,888.758 1340.99,886.616C1326.63,884.31 1320.78,869.598 1316.31,859.335C1306.43,836.714 1303.37,810.301 1300.37,785.586C1295.81,747.926 1294.79,709.529 1294.79,671.619C1294.79,634.024 1295.82,595.932 1300.45,558.605C1303.51,533.921 1306.73,507.473 1316.91,485.027C1321.57,474.754 1328.39,459.23 1342.81,458.454C1366.96,457.154 1374.76,499.334 1378.29,514.351C1390.44,566.112 1391,621.573 1390.97,674.82C1390.95,711.965 1390.21,749.894 1383.95,786.643C1380.14,808.985 1375.75,831.907 1366.06,852.99C1373,853.611 1379,857.118 1383.88,863.522ZM1852.32,456.585C1861.02,469.896 1864.71,487.429 1868.7,503.43C1864.53,525.839 1860.36,548.247 1856.17,570.652C1853.09,560.809 1846.94,532.979 1833.37,531.901C1829.66,531.607 1826.03,535.525 1823.93,542.503C1821.1,551.97 1820.66,562.171 1820.69,571.979C1820.72,580.991 1821.24,588.466 1822.35,594.336C1823.46,600.218 1825.32,605.882 1827.93,611.339C1830.55,616.799 1834.67,623.661 1840.32,631.91C1852.69,650 1859.46,670.437 1863.94,690.91C1870.91,722.694 1871.44,756.447 1871.42,788.992C1871.4,815.447 1870.41,842.441 1866.28,868.557C1863.52,886.071 1860.61,905.976 1851.41,920.942C1847.06,928.027 1839.84,939.248 1828.54,937.743C1800.2,933.969 1792.69,886.105 1787.62,865.837C1792.22,843.541 1796.8,821.242 1801.36,798.941C1805.54,812.855 1811.07,843.614 1827.48,846.734C1831.56,847.51 1835.98,842.692 1838.5,833.629C1841.8,821.787 1842.59,809.026 1842.43,796.79C1842.31,787.809 1842.19,778.756 1840.92,769.806C1839.91,762.719 1838.13,756.267 1835.56,750.469C1833,744.681 1829.24,738.267 1824.31,731.268C1811.54,712.701 1803.68,691.633 1799.25,670.239C1793.25,641.279 1791.99,611.272 1792,582.023C1792.01,557.67 1793.03,532.787 1797.06,508.711C1799.84,492.103 1802.88,473.952 1811.1,459.519C1814.95,452.757 1820.87,442.156 1831.26,441.603C1841.53,441.057 1848.13,450.185 1852.32,456.585ZM1068.59,834.469C1075.31,842.473 1078.88,852.33 1082.64,861.683C1077.13,886.722 1071.59,911.756 1066.03,936.784C1061.37,916.955 1056.91,896.094 1048.36,877.965C1044.05,868.825 1038.5,856.734 1025.71,854.87C1011.94,852.863 1005.76,839.891 1001.02,830.076C991.297,809.932 988.094,785.941 985.09,763.617C980.538,729.797 979.501,695.206 979.502,661.126C979.504,627.341 980.549,593.033 985.166,559.528C988.234,537.26 991.597,513.259 1001.62,493.328C1006.57,483.49 1013.62,469.976 1027.52,469.331C1050.87,468.248 1059.23,505.197 1063.01,519.607C1075.13,565.912 1075.72,616.302 1075.69,664.327C1075.67,697.783 1074.92,732.102 1068.67,765.142C1064.85,785.306 1060.4,806.041 1050.78,824.815C1057.72,825.436 1063.71,828.646 1068.59,834.469ZM1784.15,455.294C1783.19,484.573 1782.24,513.853 1781.28,543.133C1769.35,543.214 1757.42,543.295 1745.5,543.377L1745.5,641.526C1755.91,641.741 1766.33,641.956 1776.75,642.171L1776.75,727.132L1745.5,725.749L1745.5,830.526C1758.23,831.464 1770.96,832.4 1783.7,833.337L1783.7,921.14L1717.56,914.666L1717.56,457.368C1739.76,456.677 1761.95,455.985 1784.15,455.294ZM1659.59,743.305C1656.51,743.151 1654.97,743.073 1651.89,742.917L1651.89,908.235C1642.57,907.324 1633.26,906.412 1623.95,905.5L1623.95,460.285C1636.08,459.906 1648.21,459.529 1660.34,459.151C1680.49,459.125 1688.61,478.686 1693.48,492.76C1704.93,525.804 1704.45,564.355 1704.43,599.379C1704.41,623.283 1703.62,647.53 1699.83,671.354C1697.06,688.709 1692.57,706.2 1685.1,722.428C1693.87,786.293 1702.58,850.166 1711.23,914.045C1700.86,913.03 1690.49,912.014 1680.12,911C1673.31,855.098 1666.47,799.2 1659.59,743.305ZM1611.57,460.67C1610.62,488.551 1609.66,516.431 1608.7,544.311C1596.77,544.392 1584.85,544.474 1572.92,544.555L1572.92,637.961L1604.17,638.607L1604.17,719.498C1593.75,719.036 1583.34,718.575 1572.92,718.114L1572.92,817.828L1611.12,820.639L1611.12,904.243C1589.07,902.086 1567.03,899.927 1544.98,897.769L1544.98,462.745C1567.18,462.054 1589.38,461.362 1611.57,460.67ZM1486.1,748.716C1485.92,775.1 1485.12,801.701 1481.34,827.672C1478.73,845.598 1476.03,865.837 1467.07,881.274C1462.79,888.653 1455.93,900.16 1443.82,898.791C1423.04,896.44 1416.2,869.272 1412.26,855.012C1402.47,819.533 1401.77,781.119 1401.54,744.096L1401.54,467.214C1410.85,466.924 1420.16,466.634 1429.48,466.344L1429.48,741.992C1429.6,760.655 1429.47,779.724 1432.87,798.146C1435.1,810.181 1438.79,816.447 1443.82,816.831C1448.85,817.214 1452.52,811.384 1454.69,799.385C1458.01,781.05 1457.89,762.09 1458.01,743.52L1458.01,465.455C1467.38,465.163 1476.74,464.872 1486.1,464.579L1486.1,748.716ZM1528.68,463.253L1528.68,896.172C1519.37,895.261 1510.05,894.349 1500.74,893.437L1500.74,464.124C1510.05,463.833 1519.37,463.543 1528.68,463.253ZM1252.06,471.872C1251.1,496.836 1250.14,521.801 1249.19,546.766C1237.26,546.847 1225.33,546.929 1213.4,547.01L1213.4,630.535C1223.82,630.75 1234.24,630.965 1244.66,631.18L1244.66,703.592L1213.4,702.21L1213.4,791.374L1251.6,794.186L1251.6,869.045C1229.56,866.887 1207.51,864.728 1185.46,862.569L1185.46,473.947C1207.66,473.255 1229.86,472.563 1252.06,471.872ZM1170.82,731.489C1170.64,755.363 1169.84,779.454 1166.06,802.893C1163.45,819.113 1160.6,837.617 1151.79,851.255C1147.22,858.331 1140.15,868.286 1128.54,866.869C1108.58,864.433 1101.37,841.277 1096.98,827.041C1087.2,795.332 1086.5,760.328 1086.26,726.869L1086.26,477.037C1095.57,476.747 1104.88,476.457 1114.19,476.167L1114.19,725.117C1114.34,742.004 1114.22,759.251 1117.59,775.855C1119.8,786.732 1123.5,792.429 1128.54,792.813C1133.57,793.196 1137.3,787.915 1139.41,777.123C1142.64,760.622 1142.59,743.471 1142.73,726.644L1142.73,475.278C1152.1,474.986 1161.46,474.694 1170.82,474.403L1170.82,731.489ZM924.39,521.918C936.589,565.894 937.083,614.054 937.074,659.713C937.067,692.939 936.049,726.743 931.412,759.621C928.422,780.819 925.229,804.262 914.877,822.848C909.872,831.835 902.376,843.978 888.904,842.606C865.846,840.258 857.856,807.125 853.495,791.264C841.641,748.164 840.875,701.207 840.885,656.512C840.894,624.422 841.862,591.753 846.548,559.935C849.672,538.727 853.072,515.797 863.008,496.977C868.089,487.351 875.217,474.733 888.904,474.113C911.938,473.07 920.387,507.488 924.39,521.918ZM801.019,485.924L801.019,754.692C814.459,755.648 827.898,756.604 841.337,757.561C840.331,781.234 839.324,804.908 838.316,828.581C816.572,826.452 794.828,824.324 773.084,822.194L773.084,486.795C782.396,486.504 791.708,486.215 801.019,485.924ZM713.895,525.426C726.024,565.799 726.581,610.588 726.578,652.707C726.576,683.387 725.549,714.655 720.916,744.974C717.923,764.562 714.612,786.374 704.381,803.255C699.116,811.944 691.527,822.646 678.41,821.294C655.946,818.978 647.663,789.357 643.001,773.704C631.236,734.199 630.374,690.653 630.392,649.506C630.403,619.964 631.373,589.817 636.054,560.551C639.191,540.941 642.706,519.665 652.513,502.519C657.823,493.236 665.074,481.957 678.41,481.375C700.897,480.394 709.567,511.021 713.895,525.426ZM123.97,747.42C128.901,751.494 133.582,757.746 138.013,766.216C132.521,782.901 126.988,799.576 121.404,816.236C116.542,802.416 111.839,787.612 103.739,776.008C98.807,768.943 91.957,760.611 81.091,759.754C69.42,758.835 61.995,749.988 56.406,742.416C47.215,729.965 43.589,712.875 40.478,697.795C35.898,675.603 34.889,652.282 34.891,629.686C34.894,607.324 35.897,584.217 40.553,562.295C43.728,547.349 47.538,530.293 57.011,518.196C62.904,510.67 71.315,502.403 82.903,501.918C102.335,501.106 113.206,522.211 118.385,535.354C130.233,565.426 131.102,600.591 131.067,632.886C131.042,655.395 130.222,678.929 124.046,700.723C120.139,714.512 115.269,728.373 106.155,740.398C113.1,741.019 119.039,743.346 123.97,747.42ZM1328.46,777.293C1330.02,787.03 1333.39,809.45 1342.81,810.313C1351.56,811.117 1356.06,787.279 1357.3,779.504C1362.78,745.278 1361.83,708.87 1361.83,673.851C1361.83,638.919 1362.71,602.645 1357.3,568.488C1356,560.245 1351.73,536.486 1342.81,536.709C1333.47,536.943 1329.88,559.222 1328.38,568.481C1322.93,602.226 1323.78,638.072 1323.78,672.584C1323.78,707.309 1323,743.306 1328.46,777.293ZM607.139,525.622C624.463,561.655 622.262,608.791 622.24,648.329C622.224,675.622 629.353,808.572 569.239,802.237C558.065,801.142 546.892,800.049 535.718,798.955L535.718,494.189C546.187,493.864 556.656,493.537 567.125,493.212C588.139,491.713 600.365,511.532 607.139,525.622ZM510.956,528.81C523.104,565.572 523.647,607.216 523.64,645.953C523.634,674.166 522.648,703.041 517.977,730.851C514.973,748.741 511.74,769.564 501.443,784.366C496.127,792.007 488.022,802.267 475.472,800.746C453.707,798.11 445.051,772.185 440.064,756.774C428.395,720.715 427.447,680.531 427.456,642.752C427.462,615.661 428.415,587.904 433.118,561.145C436.296,543.058 440.551,524.363 449.577,507.861C454.587,498.701 463.382,489.133 475.472,488.376C497.064,487.023 506.547,515.467 510.956,528.81ZM1013.18,756.349C1014.68,764.574 1017.72,785.364 1027.52,786.178C1037.16,786.978 1040.71,765.736 1042.02,758.53C1047.54,728.048 1046.55,694.884 1046.55,663.357C1046.55,631.897 1047.47,598.859 1042.02,568.416C1040.64,560.74 1037.33,539.681 1027.52,539.799C1017.79,539.916 1014.53,560.648 1013.1,568.409C1007.55,598.471 1008.5,631.072 1008.5,662.09C1008.5,693.308 1007.63,726.052 1013.18,756.349ZM428.964,497.516C428.009,517.2 427.053,536.883 426.095,556.568C416.19,556.617 411.238,556.641 401.333,556.691L401.333,785.797C392.021,784.886 382.71,783.974 373.398,783.062L373.398,556.829C362.889,556.882 357.635,556.907 347.126,556.96L347.126,500.066C374.405,499.216 401.685,498.365 428.964,497.516ZM307.416,501.303C306.461,518.607 305.505,535.911 304.547,553.216C292.619,553.298 280.691,553.378 268.763,553.46L268.763,611.022L300.018,611.668L300.018,661.801C289.599,661.34 279.181,660.879 268.763,660.418L268.763,721.868L306.963,724.679L306.963,776.559C284.918,774.4 262.874,772.242 240.829,770.083L240.829,503.378C263.025,502.686 285.22,501.994 307.416,501.303ZM874.484,568.378C868.946,596.894 869.877,627.99 869.878,657.476C869.879,687.159 869.033,718.392 874.559,747.14C876.103,755.171 879.113,774.744 888.904,775.566C898.566,776.378 902.055,756.375 903.401,749.309C908.91,720.382 907.931,688.729 907.93,658.743C907.93,628.815 908.836,597.282 903.401,568.385C901.988,560.87 898.723,541.039 888.904,541.158C879.168,541.275 875.958,560.786 874.484,568.378ZM226.186,679.874C225.895,696.286 225.211,712.936 221.43,728.649C218.692,740.028 215.101,751.683 207.162,761.313C200.932,768.868 192.902,771.97 183.91,771.226C167.433,769.863 157.801,755.183 152.353,743.239C142.93,722.576 142.005,698.173 141.633,675.255L141.633,506.468C150.945,506.178 160.255,505.888 169.566,505.597L169.566,674.555C169.791,686.111 169.716,697.93 172.963,709.067C175.123,716.473 178.875,720.467 183.91,720.851C188.941,721.233 192.674,717.713 194.78,710.423C197.981,699.346 197.883,687.575 198.103,676.083L198.103,504.708C207.464,504.417 216.825,504.125 226.186,503.833L226.186,679.874ZM663.989,568.33C658.552,594.472 659.382,623.281 659.383,650.47C659.384,677.85 658.64,706.785 664.065,733.156C665.655,740.887 668.654,758.621 678.41,759.453C688.075,760.277 691.487,742.172 692.906,735.305C698.395,708.734 697.436,679.388 697.436,651.737C697.435,624.131 698.318,594.895 692.906,568.337C691.423,561.057 688.218,543.101 678.41,543.221C668.699,543.338 665.514,561 663.989,568.33ZM461.052,568.283C455.66,592.173 456.445,618.75 456.447,643.716C456.448,668.865 455.75,695.561 461.127,719.675C462.79,727.132 466.787,743.913 475.472,743.917C484.452,743.921 488.095,730.21 489.968,721.806C495.377,697.534 494.498,670.4 494.498,644.983C494.497,619.598 495.298,592.565 489.968,568.29C488.42,561.239 485.23,545.09 475.472,545.209C465.823,545.327 462.653,561.19 461.052,568.283ZM563.652,551.889L563.652,743.124C566.551,743.337 568.001,743.443 570.9,743.656C581.805,743.934 586.185,730.832 587.888,723.391C593.452,699.065 593.399,672.347 593.399,647.379C593.399,627.924 593.086,608.129 590.757,588.729C589.599,579.093 588.192,568.352 583.206,559.81C580.109,554.504 575.781,551.808 570.75,551.841C567.911,551.861 566.491,551.87 563.652,551.889ZM68.56,693.596C70.366,699.949 73.523,712.767 82.903,713.865C89.223,714.605 94.437,708.312 97.398,695.69C102.255,674.979 101.927,652.922 101.927,631.917C101.926,610.915 102.932,587.798 97.398,568.2C95.222,560.494 91.007,548.964 82.903,549.057C74.869,549.147 70.709,560.503 68.485,568.193C62.93,587.395 63.879,610.072 63.88,630.651C63.881,651.405 63.034,674.156 68.56,693.596ZM1651.89,661.551C1655.63,661.652 1657.5,661.703 1661.25,661.804C1680.39,657.762 1675.66,610.712 1675.74,599.122C1675.85,584.945 1675.61,569.953 1671.74,556.218C1669.2,547.206 1665.07,542.628 1659.74,542.667C1656.6,542.69 1655.03,542.701 1651.89,542.723L1651.89,661.551ZM197.951,449.725C174.396,451.099 150.841,452.473 127.286,453.847C109.85,422.534 92.075,391.387 73.909,360.419C74.272,361.929 74.455,362.685 74.819,364.198C76.837,372.476 78.395,380.321 79.519,387.668C80.787,395.954 81.278,404.621 81.187,412.99L81.187,456.535C64.609,457.503 48.03,458.47 31.45,459.437L31.45,334.015C54.499,331.115 77.548,328.214 100.597,325.313C119.39,356.503 137.77,387.887 155.795,419.45C153.584,411.045 151.672,402.457 150.184,393.949C148.688,385.403 148.101,376.32 148.212,367.653L148.212,319.319C164.792,317.232 181.371,315.146 197.951,313.058L197.951,449.725ZM341.408,441.357C338.282,431.613 335.148,421.872 332.005,412.131C313.404,413.473 294.801,414.815 276.198,416.157C273.077,426.011 269.943,435.862 266.797,445.709C247.386,446.842 227.976,447.974 208.565,449.105C229.889,400.865 250.691,352.444 271.043,303.859C293.487,301.034 315.931,298.209 338.374,295.384C359.706,342.705 380.508,390.213 400.854,437.889C381.039,439.045 361.223,440.201 341.408,441.357ZM554.931,285.36C579.085,296.343 585.285,322.403 585.262,345.133C585.202,402.962 537.91,429.978 478.801,433.343C456.357,434.652 433.912,435.961 411.468,437.271L411.468,286.185C432.496,283.537 453.525,280.891 474.555,278.244C501.493,275.431 530.198,274.114 554.931,285.36ZM717.505,419.419C714.382,407.945 711.248,396.473 708.102,385.004C689.499,386.346 670.896,387.688 652.293,389.03C649.17,400.613 646.035,412.194 642.89,423.772C623.478,424.904 604.066,426.037 584.654,427.169C605.924,370.419 626.733,313.533 647.136,256.522L714.472,248.047C735.75,303.878 756.558,359.851 776.955,415.952L717.505,419.419ZM1880.06,298.673C1886.13,305.471 1888.6,314.337 1888.55,322.96C1888.52,328.227 1887.75,333.804 1886.12,339.532C1883.65,348.229 1880.66,356.852 1877.63,365.424C1871.29,382.846 1864.92,400.26 1858.53,417.667C1848.92,418.058 1839.32,418.449 1829.71,418.841C1834.07,397.277 1838.42,375.71 1842.76,354.142C1833.44,347.259 1829.8,337.161 1829.71,326.481C1829.64,317.592 1832.34,308.723 1838.2,301.533C1843.86,294.597 1850.84,290.791 1859.13,290.166C1867.42,289.541 1874.42,292.368 1880.06,298.673ZM1072.38,398.72L1017.18,401.94C1016.27,378.166 1015.36,354.391 1014.45,330.617C1014.33,325.879 1014.27,323.511 1014.15,318.775C1013.87,310.427 1013.5,302.028 1013.54,293.722C1013.6,279.9 1014.3,266.005 1015.36,252.135C1005.84,296.122 996.234,340.094 986.544,384.051C968.85,385.206 951.157,386.362 933.463,387.518C923.352,346.537 913.142,305.576 902.828,264.636C904.332,282.737 905.55,300.856 905.558,319.007C905.562,328.028 905.454,334.94 905.255,339.734C904.447,362.693 903.638,385.651 902.828,408.61C884.427,409.683 866.026,410.756 847.624,411.83C852.809,351.002 857.964,290.172 863.094,229.341C886.348,226.413 909.603,223.486 932.857,220.56C942.346,260.971 951.748,301.4 961.065,341.845C969.625,299.175 978.117,256.494 986.544,213.802C1009.9,210.862 1033.26,207.923 1056.61,204.983C1061.89,269.561 1067.15,334.139 1072.38,398.72ZM467.578,308.536L467.578,404.581C473.402,404.166 476.313,403.959 482.137,403.544C495.061,401.814 507.689,399.551 516.259,390.192C525.853,379.715 527.311,363.823 527.329,350.482C527.343,340.748 526.59,330.11 522.022,321.201C518.607,314.542 513.424,310.162 506.856,308.175C500.286,306.187 491.943,305.782 481.834,306.925C476.131,307.569 473.28,307.892 467.578,308.536ZM1229.8,183.185C1227.88,196.367 1225.96,209.549 1224.04,222.73L1152.15,230.863L1152.15,273.688C1173.08,271.621 1194.01,269.555 1214.94,267.488L1214.94,305.013L1152.15,310.439L1152.15,356.159C1177.73,354.341 1203.31,352.523 1228.89,350.706L1228.89,389.59C1184.61,392.174 1140.32,394.757 1096.04,397.34L1096.04,200.021C1140.62,194.408 1185.21,188.797 1229.8,183.185ZM284.994,388.448C297.733,387.366 310.471,386.283 323.209,385.201C316.884,365.794 310.515,346.399 304.102,327.016C297.775,347.504 291.407,367.982 284.994,388.448ZM1421.19,378.374C1397.63,379.748 1374.07,381.122 1350.52,382.496C1332.98,330.557 1315.19,278.691 1297.13,226.9C1297.5,229.41 1297.68,230.666 1298.04,233.177C1299.86,246.109 1301.57,259.06 1302.75,272.039C1304,285.893 1304.29,299.793 1304.41,313.705L1304.41,385.185C1287.83,386.153 1271.25,387.12 1254.67,388.087L1254.67,180.054C1277.72,177.153 1300.77,174.251 1323.82,171.35C1342.51,223.448 1360.9,275.631 1379.03,327.892C1376.82,314.083 1374.93,300.22 1373.42,286.343C1371.87,272.175 1371.46,257.879 1371.44,243.644L1371.44,165.356C1388.03,163.27 1404.61,161.183 1421.19,159.095L1421.19,378.374ZM1613.48,160.958C1634.53,185.138 1638.87,218.793 1638.95,248.509C1639.02,270.93 1636.24,294.509 1627.58,315.161C1620.62,331.778 1610.38,348.858 1594.37,359.63C1578.57,370.266 1561.37,376.077 1542.2,377.208C1515.79,378.766 1488.98,371.136 1471.08,350.475C1450.74,326.997 1445.7,295.348 1445.75,266.311C1445.79,244.97 1448.97,222.965 1457.13,203.056C1463.92,186.481 1475.29,169.718 1490.19,158.789C1505.67,147.435 1523.04,140.454 1542.2,137.972C1568.27,134.597 1595.45,140.248 1613.48,160.958ZM1778.31,115.896C1790.99,119.841 1802.24,127.111 1811.22,136.154C1802.87,148.637 1794.47,161.095 1786.05,173.534C1770.82,163.179 1758.24,157.666 1740.25,158.785C1732.39,159.274 1725.64,162.247 1721.29,166.299C1716.94,170.357 1714.77,175.586 1714.77,182.004C1714.77,186.592 1715.89,190.257 1718.11,193.003C1720.33,195.751 1724.07,198.233 1729.33,200.453C1734.59,202.672 1743.1,205.172 1754.2,208.318C1771.77,213.297 1789.59,220.223 1801.66,233.689C1813.75,247.167 1816.69,265.834 1816.68,282.744C1816.66,297.153 1813.36,311.785 1806.37,324.671C1799.85,336.682 1788.93,346.971 1776.49,354.15C1762.92,361.982 1746.05,365.926 1730.55,366.552C1699.5,367.802 1670.36,358.938 1648.35,337.103C1657.6,325.064 1666.8,313.001 1675.95,300.903C1692.51,313.264 1707.98,320.928 1728.42,320.39C1737.49,320.152 1745.3,316.851 1750.56,311.724C1755.82,306.601 1758.45,300.075 1758.45,292.176C1758.45,286.604 1757.43,282.096 1755.41,278.666C1753.39,275.237 1749.8,272.282 1744.65,269.821C1739.49,267.361 1731.93,264.833 1722.05,262.223C1703.87,257.42 1684,249.98 1671.71,236.312C1660.95,224.354 1657.24,208.435 1657.15,193.357C1657.07,180.363 1660.48,166.813 1667.31,155.269C1674,143.957 1683.77,134.269 1695.52,127.132C1708.03,119.532 1722,115.074 1736,113.24C1749.67,111.451 1764.39,111.566 1778.31,115.896ZM661.089,356.497C673.828,355.414 686.567,354.332 699.307,353.25C692.976,330.325 686.607,307.409 680.197,284.502C673.866,308.509 667.497,332.507 661.089,356.497ZM1513.24,202.338C1504.66,220.242 1503.99,241.688 1503.99,260.945C1503.99,279.533 1504.41,300.941 1513.39,317.997C1518.71,328.112 1529.78,334.58 1542.2,333.677C1555.35,332.723 1566.19,324.748 1571.32,313.829C1579.98,295.382 1580.42,273.446 1580.42,253.902C1580.42,235.17 1580.26,213.469 1571.32,195.982C1566.06,185.693 1554.53,179.971 1542.2,181.498C1529.13,183.119 1518.47,191.43 1513.24,202.338Z" style="fill:white;fill-rule:nonzero;"/>
                </g>
            </g>
        </g>
    </g>
</svg>
