<?xml version="1.0" encoding="UTF-8" standalone="no"?>
<!DOCTYPE svg PUBLIC "-//W3C//DTD SVG 1.1//EN" "http://www.w3.org/Graphics/SVG/1.1/DTD/svg11.dtd">
<svg width="100%" height="100%" viewBox="0 0 353 370" version="1.1" xmlns="http://www.w3.org/2000/svg" xmlns:xlink="http://www.w3.org/1999/xlink" xml:space="preserve" xmlns:serif="http://www.serif.com/" style="fill-rule:evenodd;clip-rule:evenodd;stroke-linejoin:round;stroke-miterlimit:2;">
    <g transform="matrix(1,0,0,1,-1189,-2906)">
        <g id="Mesa-de-trabajo3" serif:id="Mesa de trabajo3" transform="matrix(1,0,0,1,0,2255.54)">
            <rect x="0" y="0" width="2732" height="2048" style="fill:none;"/>
            <g transform="matrix(0.88126,0,0,0.88126,162.199,327.173)">
                <g transform="matrix(1.80927,0,0,1.80927,-651.625,208.035)">
                    <path d="M1219.96,110.95C1219.96,105.285 1215.37,100.694 1209.71,100.694L1020.71,100.694C1015.04,100.694 1010.45,105.285 1010.45,110.95L1010.45,299.865C1010.45,305.529 1015.04,310.121 1020.71,310.121L1209.71,310.121C1215.37,310.121 1219.96,305.529 1219.96,299.865L1219.96,110.95ZM1199.45,121.206L1199.45,289.609C1199.45,289.609 1068.95,289.609 1030.96,289.609C1030.96,289.609 1030.96,121.206 1030.96,121.206C1030.96,121.206 1199.45,121.206 1199.45,121.206L1199.45,121.206ZM1172.67,235.802L1057.75,235.802C1052.09,235.802 1047.49,240.398 1047.49,246.058C1047.49,251.719 1052.09,256.314 1057.75,256.314L1172.67,256.314C1178.33,256.314 1182.92,251.719 1182.92,246.058C1182.92,240.398 1178.33,235.802 1172.67,235.802ZM1172.67,196.14L1057.75,196.14C1052.09,196.14 1047.49,200.736 1047.49,206.396C1047.49,212.057 1052.09,216.653 1057.75,216.653L1172.67,216.653C1178.33,216.653 1182.92,212.057 1182.92,206.396C1182.92,200.736 1178.33,196.14 1172.67,196.14ZM1172.67,154.5L1057.75,154.5C1052.09,154.5 1047.49,159.096 1047.49,164.756C1047.49,170.417 1052.09,175.012 1057.75,175.012L1172.67,175.012C1178.33,175.012 1182.92,170.417 1182.92,164.756C1182.92,159.096 1178.33,154.5 1172.67,154.5Z" style="fill:rgb(242,48,5);"/>
                </g>
            </g>
        </g>
    </g>
</svg>
